<svg width="64" height="51" viewBox="0 0 64 51" fill="none" xmlns="http://www.w3.org/2000/svg">
<path fill-rule="evenodd" clip-rule="evenodd" d="M12.0266 0V46.1664C12.0266 47.3247 11.5664 48.4357 10.7473 49.2548C9.9282 50.0739 8.81724 50.5341 7.65888 50.5341H0V12.0265C0 5.3845 5.38453 0 12.0266 0Z" fill="#E65F2B"/>
<path fill-rule="evenodd" clip-rule="evenodd" d="M42.5761 29.9347C48.4687 29.4982 81.855 51.4048 51.2769 50.5344C51.7271 40.4701 47.9266 34.1985 42.5761 29.9347Z" fill="#E65F2B"/>
<path fill-rule="evenodd" clip-rule="evenodd" d="M47.5753 50.5338C47.5753 50.5338 42.9025 50.507 39.4148 50.4869C37.4656 50.4757 35.7597 49.1742 35.234 47.2971C34.6802 45.3282 33.6254 43.511 32.1497 42.0353C27.4813 37.367 19.9444 37.3237 15.3294 41.9386C13.8873 43.3808 12.8604 45.1614 12.3235 47.0979C11.7995 49.002 10.0628 50.3176 8.08781 50.3062C4.6082 50.2869 0.00040828 50.2604 0.00040828 50.2604C-0.0358323 43.9516 2.43555 37.9156 6.87094 33.4802C16.101 24.2503 31.1748 24.3369 40.5116 33.6736C44.9982 38.1602 47.5392 44.225 47.5754 50.5338H47.5753Z" fill="#E65F2B"/>
</svg>
